<svg width="380" height="97" viewBox="0 0 380 97" fill="none" xmlns="http://www.w3.org/2000/svg">
<path d="M47.779 84.539C47.779 88.7713 46.3738 91.5929 44.5001 91.5929C42.6264 91.5929 41.2212 88.7713 41.2212 84.539C41.2212 80.3065 43.5633 73.2525 44.5001 73.2525C45.4369 73.2525 47.779 80.3065 47.779 84.539Z" fill="black"/>
<path fill-rule="evenodd" clip-rule="evenodd" d="M41.2211 15.8189C41.2211 15.8189 41.6895 0.299988 44.5 0.299988C47.3106 0.299988 47.7789 15.8189 47.7789 15.8189C47.7789 15.8189 55.7421 17.2297 59.9579 26.1648C64.1737 35.0999 58.5527 43.0945 58.5527 43.0945C58.5527 43.0945 66.5158 47.7971 66.5158 37.4513C66.5158 27.1054 74.0106 25.2242 74.0106 25.2242C74.0106 25.2242 72.1368 30.3972 73.5421 35.0999C74.9474 39.8026 73.0738 44.9756 73.0738 44.9756C73.0738 44.9756 89 45.4458 89 48.2674C89 51.0891 62.7685 54.8512 62.7685 54.8512C62.7685 54.8512 66.0923 58.1431 67.9211 61.9052C69.7498 65.6674 69.8694 71.602 68.8579 70.8403C68.1121 70.2787 67.7203 69.8415 67.2008 69.2613C66.4152 68.3841 65.3372 67.1804 62.3 64.7269C57.2543 60.6507 54.3368 60.0242 54.3368 60.0242C54.3368 60.0242 53.9339 61.435 55.2737 67.5485C55.9004 70.4082 56.5558 71.8273 57.1238 73.0574C57.7701 74.4569 58.3033 75.6114 58.5527 78.3646C59.0211 83.5376 56.2106 88.7106 55.7421 88.7106C55.6124 88.7106 55.6622 88.3682 55.7524 87.7485C55.9879 86.1291 56.4991 82.6158 54.8053 78.3646C54.2267 76.9124 53.1121 75.547 51.7741 73.9081C50.8293 72.7506 49.7732 71.4569 48.7158 69.8998C47.0817 67.4935 46.0049 63.7405 45.3185 61.3479C44.9317 59.9998 44.6688 59.0836 44.5 59.0836C44.3311 59.0836 44.0683 59.9998 43.6816 61.3479C42.9951 63.7405 41.9183 67.4935 40.2842 69.8998C39.2268 71.4569 38.1707 72.7506 37.2259 73.9081C35.8879 75.547 34.7733 76.9124 34.1947 78.3646C32.501 82.6158 33.0121 86.1291 33.2476 87.7485C33.3378 88.3682 33.3876 88.7106 33.2579 88.7106C32.7895 88.7106 29.9789 83.5376 30.4474 78.3646C30.6967 75.6114 31.2299 74.4569 31.8762 73.0574C32.4442 71.8273 33.0996 70.4082 33.7263 67.5485C35.0661 61.435 34.6632 60.0242 34.6632 60.0242C34.6632 60.0242 31.7457 60.6507 26.7 64.7269C23.6628 67.1804 22.5849 68.3841 21.7992 69.2613C21.2797 69.8415 20.888 70.2787 20.1421 70.8403C19.1306 71.602 19.2502 65.6674 21.0789 61.9052C22.9077 58.1431 26.2315 54.8512 26.2315 54.8512C26.2315 54.8512 0 51.0891 0 48.2674C0 45.4458 15.9263 44.9756 15.9263 44.9756C15.9263 44.9756 14.0526 39.8026 15.4579 35.0999C16.8632 30.3972 14.9895 25.2242 14.9895 25.2242C14.9895 25.2242 22.4842 27.1054 22.4842 37.4513C22.4842 47.7971 30.4474 43.0945 30.4474 43.0945C30.4474 43.0945 24.8263 35.0999 29.0421 26.1648C33.2579 17.2297 41.2211 15.8189 41.2211 15.8189ZM50.5965 44.5053C48.3937 44.5053 46.7198 42.4805 46.8491 40.2728C46.9706 38.1987 48.5269 36.5107 50.5965 36.5107C52.6662 36.5107 54.2224 38.1987 54.3439 40.2728C54.4408 41.9286 53.5236 43.4814 52.1295 44.1544C51.6649 44.3787 51.1472 44.5053 50.5965 44.5053ZM34.6701 40.2728C34.5408 42.4805 36.2148 44.5053 38.4176 44.5053C38.9683 44.5053 39.4858 44.3787 39.9506 44.1544C41.3446 43.4814 42.2619 41.9286 42.165 40.2728C42.0434 38.1987 40.4871 36.5107 38.4176 36.5107C36.348 36.5107 34.7917 38.1987 34.6701 40.2728Z" fill="black"/>
<path d="M363.004 69.9V59.54L364.614 63.705L353.659 45.4H360.974L368.884 58.665H364.649L372.594 45.4H379.314L368.394 63.705L369.934 59.54V69.9H363.004Z" fill="black"/>
<path d="M327.543 69.9L338.358 45.4H345.183L356.033 69.9H348.823L340.353 48.795H343.083L334.613 69.9H327.543ZM333.458 65.14L335.243 60.03H347.213L348.998 65.14H333.458Z" fill="black"/>
<path d="M308.531 69.9V45.4H315.461V64.405H327.151V69.9H308.531Z" fill="black"/>
<path d="M294.556 70.39C292.62 70.39 290.823 70.0866 289.166 69.48C287.533 68.85 286.11 67.9633 284.896 66.82C283.706 65.6766 282.773 64.335 282.096 62.795C281.42 61.2316 281.081 59.5166 281.081 57.65C281.081 55.7833 281.42 54.08 282.096 52.54C282.773 50.9766 283.706 49.6233 284.896 48.48C286.11 47.3366 287.533 46.4616 289.166 45.855C290.823 45.225 292.62 44.91 294.556 44.91C296.82 44.91 298.838 45.3066 300.611 46.1C302.408 46.8933 303.901 48.0366 305.091 49.53L300.681 53.52C299.888 52.5866 299.013 51.875 298.056 51.385C297.123 50.895 296.073 50.65 294.906 50.65C293.903 50.65 292.981 50.8133 292.141 51.14C291.301 51.4666 290.578 51.945 289.971 52.575C289.388 53.1816 288.921 53.9166 288.571 54.78C288.245 55.6433 288.081 56.6 288.081 57.65C288.081 58.7 288.245 59.6566 288.571 60.52C288.921 61.3833 289.388 62.13 289.971 62.76C290.578 63.3666 291.301 63.8333 292.141 64.16C292.981 64.4866 293.903 64.65 294.906 64.65C296.073 64.65 297.123 64.405 298.056 63.915C299.013 63.425 299.888 62.7133 300.681 61.78L305.091 65.77C303.901 67.24 302.408 68.3833 300.611 69.2C298.838 69.9933 296.82 70.39 294.556 70.39Z" fill="black"/>
<path d="M251.878 69.9L262.693 45.4H269.518L280.368 69.9H273.158L264.688 48.795H267.418L258.948 69.9H251.878ZM257.793 65.14L259.578 60.03H271.548L273.333 65.14H257.793Z" fill="black"/>
<path d="M240.417 70.39C238.411 70.39 236.474 70.145 234.607 69.655C232.764 69.1416 231.259 68.4883 230.092 67.695L232.367 62.585C233.464 63.285 234.724 63.8683 236.147 64.335C237.594 64.7783 239.029 65 240.452 65C241.409 65 242.179 64.9183 242.762 64.755C243.346 64.5683 243.766 64.335 244.022 64.055C244.302 63.7516 244.442 63.4016 244.442 63.005C244.442 62.445 244.186 62.0016 243.672 61.675C243.159 61.3483 242.494 61.08 241.677 60.87C240.861 60.66 239.951 60.45 238.947 60.24C237.967 60.03 236.976 59.7616 235.972 59.435C234.992 59.1083 234.094 58.6883 233.277 58.175C232.461 57.6383 231.796 56.95 231.282 56.11C230.769 55.2466 230.512 54.1616 230.512 52.855C230.512 51.385 230.909 50.055 231.702 48.865C232.519 47.675 233.732 46.7183 235.342 45.995C236.952 45.2716 238.959 44.91 241.362 44.91C242.972 44.91 244.547 45.0966 246.087 45.47C247.651 45.82 249.039 46.345 250.252 47.045L248.117 52.19C246.951 51.56 245.796 51.0933 244.652 50.79C243.509 50.4633 242.401 50.3 241.327 50.3C240.371 50.3 239.601 50.405 239.017 50.615C238.434 50.8016 238.014 51.0583 237.757 51.385C237.501 51.7116 237.372 52.085 237.372 52.505C237.372 53.0416 237.617 53.4733 238.107 53.8C238.621 54.1033 239.286 54.36 240.102 54.57C240.942 54.7566 241.852 54.955 242.832 55.165C243.836 55.375 244.827 55.6433 245.807 55.97C246.811 56.2733 247.721 56.6933 248.537 57.23C249.354 57.7433 250.007 58.4316 250.497 59.295C251.011 60.135 251.267 61.1966 251.267 62.48C251.267 63.9033 250.859 65.2216 250.042 66.435C249.249 67.625 248.047 68.5816 246.437 69.305C244.851 70.0283 242.844 70.39 240.417 70.39Z" fill="black"/>
<path d="M217.528 62.4799V57.3699H227.748V62.4799H217.528Z" fill="black"/>
<path d="M203.487 70.39C201.48 70.39 199.544 70.145 197.677 69.655C195.834 69.1416 194.329 68.4883 193.162 67.695L195.437 62.585C196.534 63.285 197.794 63.8683 199.217 64.335C200.664 64.7783 202.099 65 203.522 65C204.479 65 205.249 64.9183 205.832 64.755C206.415 64.5683 206.835 64.335 207.092 64.055C207.372 63.7516 207.512 63.4016 207.512 63.005C207.512 62.445 207.255 62.0016 206.742 61.675C206.229 61.3483 205.564 61.08 204.747 60.87C203.93 60.66 203.02 60.45 202.017 60.24C201.037 60.03 200.045 59.7616 199.042 59.435C198.062 59.1083 197.164 58.6883 196.347 58.175C195.53 57.6383 194.865 56.95 194.352 56.11C193.839 55.2466 193.582 54.1616 193.582 52.855C193.582 51.385 193.979 50.055 194.772 48.865C195.589 47.675 196.802 46.7183 198.412 45.995C200.022 45.2716 202.029 44.91 204.432 44.91C206.042 44.91 207.617 45.0966 209.157 45.47C210.72 45.82 212.109 46.345 213.322 47.045L211.187 52.19C210.02 51.56 208.865 51.0933 207.722 50.79C206.579 50.4633 205.47 50.3 204.397 50.3C203.44 50.3 202.67 50.405 202.087 50.615C201.504 50.8016 201.084 51.0583 200.827 51.385C200.57 51.7116 200.442 52.085 200.442 52.505C200.442 53.0416 200.687 53.4733 201.177 53.8C201.69 54.1033 202.355 54.36 203.172 54.57C204.012 54.7566 204.922 54.955 205.902 55.165C206.905 55.375 207.897 55.6433 208.877 55.97C209.88 56.2733 210.79 56.6933 211.607 57.23C212.424 57.7433 213.077 58.4316 213.567 59.295C214.08 60.135 214.337 61.1966 214.337 62.48C214.337 63.9033 213.929 65.2216 213.112 66.435C212.319 67.625 211.117 68.5816 209.507 69.305C207.92 70.0283 205.914 70.39 203.487 70.39Z" fill="black"/>
<path d="M182.667 69.9V45.4H189.597V69.9H182.667Z" fill="black"/>
<path d="M156.408 69.9V45.4H167.608C169.848 45.4 171.773 45.7616 173.383 46.485C175.017 47.2083 176.277 48.2583 177.163 49.635C178.05 50.9883 178.493 52.5983 178.493 54.465C178.493 56.3083 178.05 57.9066 177.163 59.26C176.277 60.59 175.017 61.6166 173.383 62.34C171.773 63.04 169.848 63.39 167.608 63.39H160.258L163.338 60.485V69.9H156.408ZM171.563 69.9L165.473 60.975H172.858L178.983 69.9H171.563ZM163.338 61.22L160.258 58.035H167.188C168.635 58.035 169.708 57.72 170.408 57.09C171.132 56.46 171.493 55.585 171.493 54.465C171.493 53.3216 171.132 52.435 170.408 51.805C169.708 51.175 168.635 50.86 167.188 50.86H160.258L163.338 47.675V61.22Z" fill="black"/>
<path d="M125.604 69.9L136.419 45.4H143.244L154.094 69.9H146.884L138.414 48.795H141.144L132.674 69.9H125.604ZM131.519 65.14L133.304 60.03H145.274L147.059 65.14H131.519Z" fill="black"/>
<path d="M103.96 69.9V45.4H115.16C117.4 45.4 119.325 45.7616 120.935 46.485C122.569 47.2083 123.829 48.2583 124.715 49.635C125.602 50.9883 126.045 52.5983 126.045 54.465C126.045 56.3083 125.602 57.9066 124.715 59.26C123.829 60.6133 122.569 61.6633 120.935 62.41C119.325 63.1333 117.4 63.495 115.16 63.495H107.81L110.89 60.485V69.9H103.96ZM110.89 61.22L107.81 58.035H114.74C116.187 58.035 117.26 57.72 117.96 57.09C118.684 56.46 119.045 55.585 119.045 54.465C119.045 53.3216 118.684 52.435 117.96 51.805C117.26 51.175 116.187 50.86 114.74 50.86H107.81L110.89 47.675V61.22Z" fill="black"/>
<path d="M220.135 35.6C217.535 35.6 215.035 35.1833 212.635 34.35C210.269 33.4833 208.435 32.3833 207.135 31.05L208.585 28.2C209.819 29.4 211.469 30.4167 213.535 31.25C215.635 32.05 217.835 32.45 220.135 32.45C222.335 32.45 224.119 32.1833 225.485 31.65C226.885 31.0833 227.902 30.3333 228.535 29.4C229.202 28.4667 229.535 27.4333 229.535 26.3C229.535 24.9333 229.135 23.8333 228.335 23C227.569 22.1667 226.552 21.5167 225.285 21.05C224.019 20.55 222.619 20.1167 221.085 19.75C219.552 19.3833 218.019 19 216.485 18.6C214.952 18.1667 213.535 17.6 212.235 16.9C210.969 16.2 209.935 15.2833 209.135 14.15C208.369 12.9833 207.985 11.4667 207.985 9.6C207.985 7.86667 208.435 6.28333 209.335 4.85C210.269 3.38333 211.685 2.21667 213.585 1.35C215.485 0.45 217.919 0 220.885 0C222.852 0 224.802 0.283333 226.735 0.85C228.669 1.38333 230.335 2.13333 231.735 3.1L230.485 6.05C228.985 5.05 227.385 4.31667 225.685 3.85C224.019 3.38333 222.402 3.15 220.835 3.15C218.735 3.15 217.002 3.43333 215.635 4C214.269 4.56667 213.252 5.33333 212.585 6.3C211.952 7.23333 211.635 8.3 211.635 9.5C211.635 10.8667 212.019 11.9667 212.785 12.8C213.585 13.6333 214.619 14.2833 215.885 14.75C217.185 15.2167 218.602 15.6333 220.135 16C221.669 16.3667 223.185 16.7667 224.685 17.2C226.219 17.6333 227.619 18.2 228.885 18.9C230.185 19.5667 231.219 20.4667 231.985 21.6C232.785 22.7333 233.185 24.2167 233.185 26.05C233.185 27.75 232.719 29.3333 231.785 30.8C230.852 32.2333 229.419 33.4 227.485 34.3C225.585 35.1667 223.135 35.6 220.135 35.6Z" fill="black"/>
<path d="M180.338 15.95H198.838V19.1H180.338V15.95ZM180.738 32.1H201.788V35.3H177.038V0.299988H201.038V3.49999H180.738V32.1Z" fill="black"/>
<path d="M141.637 35.3V0.299988H154.737C157.704 0.299988 160.254 0.783321 162.387 1.74999C164.521 2.68332 166.154 4.04999 167.287 5.84999C168.454 7.61665 169.037 9.76666 169.037 12.3C169.037 14.7667 168.454 16.9 167.287 18.7C166.154 20.4667 164.521 21.8333 162.387 22.8C160.254 23.7667 157.704 24.25 154.737 24.25H143.687L145.337 22.5V35.3H141.637ZM145.337 22.8L143.687 21H154.637C158.137 21 160.787 20.25 162.587 18.75C164.421 17.2167 165.337 15.0667 165.337 12.3C165.337 9.49999 164.421 7.33332 162.587 5.79999C160.787 4.26665 158.137 3.49999 154.637 3.49999H143.687L145.337 1.74999V22.8Z" fill="black"/>
<path d="M120.9 35.6C118.267 35.6 115.833 35.1667 113.6 34.3C111.367 33.4 109.433 32.15 107.8 30.55C106.167 28.95 104.883 27.0667 103.95 24.9C103.05 22.7333 102.6 20.3667 102.6 17.8C102.6 15.2333 103.05 12.8667 103.95 10.7C104.883 8.53333 106.167 6.65 107.8 5.05C109.467 3.45 111.417 2.21667 113.65 1.35C115.883 0.45 118.317 0 120.95 0C123.483 0 125.867 0.433334 128.1 1.3C130.333 2.13333 132.217 3.4 133.75 5.1L131.4 7.45C129.967 5.98333 128.383 4.93333 126.65 4.3C124.917 3.63333 123.05 3.3 121.05 3.3C118.95 3.3 117 3.66667 115.2 4.4C113.4 5.1 111.833 6.11667 110.5 7.45C109.167 8.75 108.117 10.2833 107.35 12.05C106.617 13.7833 106.25 15.7 106.25 17.8C106.25 19.9 106.617 21.8333 107.35 23.6C108.117 25.3333 109.167 26.8667 110.5 28.2C111.833 29.5 113.4 30.5167 115.2 31.25C117 31.95 118.95 32.3 121.05 32.3C123.05 32.3 124.917 31.9667 126.65 31.3C128.383 30.6333 129.967 29.5667 131.4 28.1L133.75 30.45C132.217 32.15 130.333 33.4333 128.1 34.3C125.867 35.1667 123.467 35.6 120.9 35.6Z" fill="black"/>
<path d="M118.883 91.4V80.2H123.491C124.483 80.2 125.331 80.36 126.035 80.68C126.749 81 127.299 81.4587 127.683 82.056C128.067 82.6533 128.259 83.3627 128.259 84.184C128.259 85.0053 128.067 85.7147 127.683 86.312C127.299 86.9093 126.749 87.368 126.035 87.688C125.331 88.008 124.483 88.168 123.491 88.168H120.035L120.963 87.192V91.4H118.883ZM120.963 87.416L120.035 86.408H123.395C124.312 86.408 125 86.216 125.459 85.832C125.928 85.4373 126.163 84.888 126.163 84.184C126.163 83.4693 125.928 82.92 125.459 82.536C125 82.152 124.312 81.96 123.395 81.96H120.035L120.963 80.936V87.416Z" fill="black"/>
<path d="M107.27 91.4V80.2H111.878C112.87 80.2 113.718 80.36 114.422 80.68C115.136 81 115.686 81.4587 116.07 82.056C116.454 82.6533 116.646 83.3627 116.646 84.184C116.646 85.0053 116.454 85.7147 116.07 86.312C115.686 86.9093 115.136 87.368 114.422 87.688C113.718 88.008 112.87 88.168 111.878 88.168H108.422L109.35 87.192V91.4H107.27ZM109.35 87.416L108.422 86.408H111.782C112.699 86.408 113.387 86.216 113.846 85.832C114.315 85.4373 114.55 84.888 114.55 84.184C114.55 83.4693 114.315 82.92 113.846 82.536C113.387 82.152 112.699 81.96 111.782 81.96H108.422L109.35 80.936V87.416Z" fill="black"/>
<path d="M102 91.4V80.2H104.08V91.4H102Z" fill="black"/>
<path d="M130.399 91.3L132.679 88.34L132.669 88.83L130.499 86H131.569L133.229 88.18H132.819L134.479 86H135.529L133.329 88.85L133.339 88.34L135.639 91.3H134.549L132.799 88.98L133.189 89.04L131.469 91.3H130.399Z" fill="black"/>
<path d="M166.381 91.56C165.506 91.56 164.669 91.4373 163.869 91.192C163.069 90.936 162.434 90.6106 161.965 90.216L162.685 88.6C163.133 88.952 163.688 89.2453 164.349 89.48C165.01 89.7146 165.688 89.832 166.381 89.832C166.968 89.832 167.442 89.768 167.805 89.64C168.168 89.512 168.434 89.3413 168.605 89.128C168.776 88.904 168.861 88.6533 168.861 88.376C168.861 88.0346 168.738 87.7626 168.493 87.56C168.248 87.3466 167.928 87.1813 167.533 87.064C167.149 86.936 166.717 86.8186 166.237 86.712C165.768 86.6053 165.293 86.4826 164.813 86.344C164.344 86.1946 163.912 86.008 163.517 85.784C163.133 85.5493 162.818 85.24 162.573 84.856C162.328 84.472 162.205 83.9813 162.205 83.384C162.205 82.776 162.365 82.2213 162.685 81.72C163.016 81.208 163.512 80.8026 164.173 80.504C164.845 80.1946 165.693 80.04 166.717 80.04C167.389 80.04 168.056 80.1253 168.717 80.296C169.378 80.4666 169.954 80.712 170.445 81.032L169.789 82.648C169.288 82.3493 168.77 82.1306 168.237 81.992C167.704 81.8426 167.192 81.768 166.701 81.768C166.125 81.768 165.656 81.8373 165.293 81.976C164.941 82.1146 164.68 82.296 164.509 82.52C164.349 82.744 164.269 83 164.269 83.288C164.269 83.6293 164.386 83.9066 164.621 84.12C164.866 84.3226 165.181 84.4826 165.565 84.6C165.96 84.7173 166.397 84.8346 166.877 84.952C167.357 85.0586 167.832 85.1813 168.301 85.32C168.781 85.4586 169.213 85.64 169.597 85.864C169.992 86.088 170.306 86.392 170.541 86.776C170.786 87.16 170.909 87.6453 170.909 88.232C170.909 88.8293 170.744 89.384 170.413 89.896C170.093 90.3973 169.597 90.8026 168.925 91.112C168.253 91.4106 167.405 91.56 166.381 91.56Z" fill="black"/>
<path d="M151.14 91.4V80.2H155.748C156.74 80.2 157.588 80.36 158.292 80.68C159.006 81 159.556 81.4586 159.94 82.056C160.324 82.6533 160.516 83.3626 160.516 84.184C160.516 85.0053 160.324 85.7146 159.94 86.312C159.556 86.9093 159.006 87.368 158.292 87.688C157.588 88.008 156.74 88.168 155.748 88.168H152.292L153.22 87.192V91.4H151.14ZM153.22 87.416L152.292 86.408H155.652C156.569 86.408 157.257 86.216 157.716 85.832C158.185 85.4373 158.42 84.888 158.42 84.184C158.42 83.4693 158.185 82.92 157.716 82.536C157.257 82.152 156.569 81.96 155.652 81.96H152.292L153.22 80.936V87.416Z" fill="black"/>
<path d="M143.171 91.56C141.635 91.56 140.429 91.128 139.555 90.264C138.691 89.4 138.259 88.152 138.259 86.52V80.2H140.339V86.44C140.339 87.592 140.584 88.4293 141.075 88.952C141.576 89.4746 142.28 89.736 143.187 89.736C144.093 89.736 144.792 89.4746 145.283 88.952C145.773 88.4293 146.019 87.592 146.019 86.44V80.2H148.067V86.52C148.067 88.152 147.629 89.4 146.755 90.264C145.891 91.128 144.696 91.56 143.171 91.56Z" fill="black"/>
<path d="M173.049 91.3L175.329 88.34L175.319 88.83L173.149 86H174.219L175.879 88.18H175.469L177.129 86H178.179L175.979 88.85L175.989 88.34L178.289 91.3H177.199L175.449 88.98L175.839 89.04L174.119 91.3H173.049Z" fill="black"/>
<path d="M210.085 91.56C209.231 91.56 208.437 91.4213 207.701 91.144C206.975 90.856 206.341 90.456 205.797 89.944C205.263 89.4213 204.847 88.808 204.549 88.104C204.25 87.4 204.101 86.632 204.101 85.8C204.101 84.968 204.25 84.2 204.549 83.496C204.847 82.792 205.269 82.184 205.813 81.672C206.357 81.1493 206.991 80.7493 207.717 80.472C208.442 80.184 209.237 80.04 210.101 80.04C211.018 80.04 211.855 80.2 212.613 80.52C213.37 80.8293 214.01 81.2933 214.533 81.912L213.189 83.176C212.783 82.7386 212.33 82.4133 211.829 82.2C211.327 81.976 210.783 81.864 210.197 81.864C209.61 81.864 209.071 81.96 208.581 82.152C208.101 82.344 207.679 82.616 207.317 82.968C206.965 83.32 206.687 83.736 206.485 84.216C206.293 84.696 206.197 85.224 206.197 85.8C206.197 86.376 206.293 86.904 206.485 87.384C206.687 87.864 206.965 88.28 207.317 88.632C207.679 88.984 208.101 89.256 208.581 89.448C209.071 89.64 209.61 89.736 210.197 89.736C210.783 89.736 211.327 89.6293 211.829 89.416C212.33 89.192 212.783 88.856 213.189 88.408L214.533 89.688C214.01 90.296 213.37 90.76 212.613 91.08C211.855 91.4 211.013 91.56 210.085 91.56Z" fill="black"/>
<path d="M195.942 84.856H201.51V86.568H195.942V84.856ZM196.102 89.656H202.422V91.4H194.022V80.2H202.198V81.944H196.102V89.656Z" fill="black"/>
<path d="M188.781 80.2H190.861V91.4H188.781V80.2ZM182.989 91.4H180.909V80.2H182.989V91.4ZM188.941 86.6H182.813V84.824H188.941V86.6Z" fill="black"/>
<path d="M216.673 91.3L218.953 88.34L218.943 88.83L216.773 86H217.843L219.503 88.18H219.093L220.753 86H221.803L219.603 88.85L219.613 88.34L221.913 91.3H220.823L219.073 88.98L219.463 89.04L217.743 91.3H216.673Z" fill="black"/>
<path d="M251.997 91.56C251.122 91.56 250.285 91.4373 249.485 91.192C248.685 90.936 248.05 90.6106 247.581 90.216L248.301 88.6C248.749 88.952 249.303 89.2453 249.965 89.48C250.626 89.7146 251.303 89.832 251.997 89.832C252.583 89.832 253.058 89.768 253.421 89.64C253.783 89.512 254.05 89.3413 254.221 89.128C254.391 88.904 254.477 88.6533 254.477 88.376C254.477 88.0346 254.354 87.7626 254.109 87.56C253.863 87.3466 253.543 87.1813 253.149 87.064C252.765 86.936 252.333 86.8186 251.853 86.712C251.383 86.6053 250.909 86.4826 250.429 86.344C249.959 86.1946 249.527 86.008 249.133 85.784C248.749 85.5493 248.434 85.24 248.189 84.856C247.943 84.472 247.821 83.9813 247.821 83.384C247.821 82.776 247.981 82.2213 248.301 81.72C248.631 81.208 249.127 80.8026 249.789 80.504C250.461 80.1946 251.309 80.04 252.333 80.04C253.005 80.04 253.671 80.1253 254.333 80.296C254.994 80.4666 255.57 80.712 256.061 81.032L255.405 82.648C254.903 82.3493 254.386 82.1306 253.853 81.992C253.319 81.8426 252.807 81.768 252.317 81.768C251.741 81.768 251.271 81.8373 250.909 81.976C250.557 82.1146 250.295 82.296 250.125 82.52C249.965 82.744 249.885 83 249.885 83.288C249.885 83.6293 250.002 83.9066 250.237 84.12C250.482 84.3226 250.797 84.4826 251.181 84.6C251.575 84.7173 252.013 84.8346 252.493 84.952C252.973 85.0586 253.447 85.1813 253.917 85.32C254.397 85.4586 254.829 85.64 255.213 85.864C255.607 86.088 255.922 86.392 256.157 86.776C256.402 87.16 256.525 87.6453 256.525 88.232C256.525 88.8293 256.359 89.384 256.029 89.896C255.709 90.3973 255.213 90.8026 254.541 91.112C253.869 91.4106 253.021 91.56 251.997 91.56Z" fill="black"/>
<path d="M235.412 91.4V80.2H237.124L244.148 88.824H243.3V80.2H245.364V91.4H243.652L236.628 82.776H237.476V91.4H235.412Z" fill="black"/>
<path d="M226.453 84.856H232.021V86.568H226.453V84.856ZM226.613 89.656H232.933V91.4H224.533V80.2H232.709V81.944H226.613V89.656Z" fill="black"/>
<path d="M258.665 91.3L260.945 88.34L260.935 88.83L258.765 86H259.835L261.495 88.18H261.085L262.745 86H263.795L261.595 88.85L261.605 88.34L263.905 91.3H262.815L261.065 88.98L261.455 89.04L259.735 91.3H258.665Z" fill="black"/>
<path d="M308.387 91.56C307.512 91.56 306.675 91.4373 305.875 91.192C305.075 90.936 304.44 90.6106 303.971 90.216L304.691 88.6C305.139 88.952 305.693 89.2453 306.355 89.48C307.016 89.7146 307.693 89.832 308.387 89.832C308.973 89.832 309.448 89.768 309.811 89.64C310.173 89.512 310.44 89.3413 310.611 89.128C310.781 88.904 310.867 88.6533 310.867 88.376C310.867 88.0346 310.744 87.7626 310.499 87.56C310.253 87.3466 309.933 87.1813 309.539 87.064C309.155 86.936 308.723 86.8186 308.243 86.712C307.773 86.6053 307.299 86.4826 306.819 86.344C306.349 86.1946 305.917 86.008 305.523 85.784C305.139 85.5493 304.824 85.24 304.579 84.856C304.333 84.472 304.211 83.9813 304.211 83.384C304.211 82.776 304.371 82.2213 304.691 81.72C305.021 81.208 305.517 80.8026 306.179 80.504C306.851 80.1946 307.699 80.04 308.723 80.04C309.395 80.04 310.061 80.1253 310.723 80.296C311.384 80.4666 311.96 80.712 312.451 81.032L311.795 82.648C311.293 82.3493 310.776 82.1306 310.243 81.992C309.709 81.8426 309.197 81.768 308.707 81.768C308.131 81.768 307.661 81.8373 307.299 81.976C306.947 82.1146 306.685 82.296 306.515 82.52C306.355 82.744 306.275 83 306.275 83.288C306.275 83.6293 306.392 83.9066 306.627 84.12C306.872 84.3226 307.187 84.4826 307.571 84.6C307.965 84.7173 308.403 84.8346 308.883 84.952C309.363 85.0586 309.837 85.1813 310.307 85.32C310.787 85.4586 311.219 85.64 311.603 85.864C311.997 86.088 312.312 86.392 312.547 86.776C312.792 87.16 312.915 87.6453 312.915 88.232C312.915 88.8293 312.749 89.384 312.419 89.896C312.099 90.3973 311.603 90.8026 310.931 91.112C310.259 91.4106 309.411 91.56 308.387 91.56Z" fill="black"/>
<path d="M293.145 91.4V80.2H297.753C298.745 80.2 299.593 80.36 300.297 80.68C301.012 81 301.561 81.4586 301.945 82.056C302.329 82.6533 302.521 83.3626 302.521 84.184C302.521 85.0053 302.329 85.7146 301.945 86.312C301.561 86.9093 301.012 87.368 300.297 87.688C299.593 88.008 298.745 88.168 297.753 88.168H294.297L295.225 87.192V91.4H293.145ZM295.225 87.416L294.297 86.408H297.657C298.575 86.408 299.263 86.216 299.721 85.832C300.191 85.4373 300.425 84.888 300.425 84.184C300.425 83.4693 300.191 82.92 299.721 82.536C299.263 82.152 298.575 81.96 297.657 81.96H294.297L295.225 80.936V87.416Z" fill="black"/>
<path d="M281.532 91.4V80.2H286.14C287.132 80.2 287.98 80.36 288.684 80.68C289.399 81 289.948 81.4586 290.332 82.056C290.716 82.6533 290.908 83.3626 290.908 84.184C290.908 85.0053 290.716 85.7146 290.332 86.312C289.948 86.9093 289.399 87.368 288.684 87.688C287.98 88.008 287.132 88.168 286.14 88.168H282.684L283.612 87.192V91.4H281.532ZM283.612 87.416L282.684 86.408H286.044C286.962 86.408 287.65 86.216 288.108 85.832C288.578 85.4373 288.812 84.888 288.812 84.184C288.812 83.4693 288.578 82.92 288.108 82.536C287.65 82.152 286.962 81.96 286.044 81.96H282.684L283.612 80.936V87.416Z" fill="black"/>
<path d="M276.263 91.4V80.2H278.343V91.4H276.263Z" fill="black"/>
<path d="M266.525 91.4V80.2H268.605V89.64H274.461V91.4H266.525Z" fill="black"/>
</svg>
