<svg width="380" height="92" viewBox="0 0 380 92" fill="none" xmlns="http://www.w3.org/2000/svg">
<path d="M47.779 84.539C47.779 88.7713 46.3738 91.5929 44.5001 91.5929C42.6263 91.5929 41.2212 88.7713 41.2212 84.539C41.2212 80.3065 43.5633 73.2525 44.5001 73.2525C45.4369 73.2525 47.779 80.3065 47.779 84.539Z" fill="black"/>
<path fill-rule="evenodd" clip-rule="evenodd" d="M41.2211 15.8189C41.2211 15.8189 41.6895 0.300001 44.5 0.300001C47.3106 0.300001 47.7789 15.8189 47.7789 15.8189C47.7789 15.8189 55.7421 17.2297 59.9579 26.1649C64.1737 35.0999 58.5527 43.0945 58.5527 43.0945C58.5527 43.0945 66.5158 47.7971 66.5158 37.4513C66.5158 27.1054 74.0106 25.2242 74.0106 25.2242C74.0106 25.2242 72.1368 30.3972 73.5421 35.0999C74.9474 39.8026 73.0738 44.9756 73.0738 44.9756C73.0738 44.9756 89 45.4458 89 48.2674C89 51.0891 62.7685 54.8512 62.7685 54.8512C62.7685 54.8512 66.0923 58.1431 67.9211 61.9052C69.7498 65.6674 69.8694 71.6021 68.8579 70.8403C68.1121 70.2787 67.7203 69.8415 67.2008 69.2614C66.4152 68.3841 65.3372 67.1804 62.3 64.7269C57.2543 60.6507 54.3368 60.0242 54.3368 60.0242C54.3368 60.0242 53.9339 61.435 55.2737 67.5485C55.9004 70.4082 56.5558 71.8273 57.1238 73.0574C57.7701 74.4569 58.3033 75.6114 58.5527 78.3647C59.0211 83.5376 56.2106 88.7106 55.7421 88.7106C55.6124 88.7106 55.6622 88.3682 55.7524 87.7485C55.9879 86.1291 56.4991 82.6158 54.8053 78.3647C54.2267 76.9125 53.1121 75.5471 51.7741 73.9081C50.8293 72.7506 49.7732 71.4569 48.7158 69.8998C47.0817 67.4935 46.0049 63.7405 45.3185 61.3479C44.9317 59.9998 44.6688 59.0836 44.5 59.0836C44.3311 59.0836 44.0683 59.9998 43.6816 61.3479C42.9951 63.7405 41.9183 67.4935 40.2842 69.8998C39.2268 71.4569 38.1707 72.7506 37.2259 73.9081C35.8879 75.5471 34.7733 76.9125 34.1947 78.3647C32.501 82.6158 33.0121 86.1291 33.2476 87.7485C33.3378 88.3682 33.3876 88.7106 33.2579 88.7106C32.7895 88.7106 29.9789 83.5376 30.4474 78.3647C30.6967 75.6114 31.2299 74.4569 31.8762 73.0574C32.4442 71.8273 33.0996 70.4082 33.7263 67.5485C35.0661 61.435 34.6632 60.0242 34.6632 60.0242C34.6632 60.0242 31.7457 60.6507 26.7 64.7269C23.6628 67.1804 22.5849 68.3841 21.7992 69.2614C21.2797 69.8415 20.888 70.2787 20.1421 70.8403C19.1306 71.6021 19.2502 65.6674 21.0789 61.9052C22.9077 58.1431 26.2315 54.8512 26.2315 54.8512C26.2315 54.8512 0 51.0891 0 48.2674C0 45.4458 15.9263 44.9756 15.9263 44.9756C15.9263 44.9756 14.0526 39.8026 15.4579 35.0999C16.8632 30.3972 14.9895 25.2242 14.9895 25.2242C14.9895 25.2242 22.4842 27.1054 22.4842 37.4513C22.4842 47.7971 30.4474 43.0945 30.4474 43.0945C30.4474 43.0945 24.8263 35.0999 29.0421 26.1649C33.2579 17.2297 41.2211 15.8189 41.2211 15.8189ZM50.5965 44.5053C48.3937 44.5053 46.7198 42.4805 46.8491 40.2728C46.9706 38.1987 48.5269 36.5107 50.5965 36.5107C52.6662 36.5107 54.2224 38.1987 54.3439 40.2728C54.4408 41.9286 53.5236 43.4815 52.1295 44.1544C51.6649 44.3787 51.1472 44.5053 50.5965 44.5053ZM34.6701 40.2728C34.5408 42.4805 36.2148 44.5053 38.4176 44.5053C38.9683 44.5053 39.4858 44.3787 39.9506 44.1544C41.3446 43.4815 42.2619 41.9286 42.165 40.2728C42.0434 38.1987 40.4871 36.5107 38.4176 36.5107C36.348 36.5107 34.7917 38.1987 34.6701 40.2728Z" fill="black"/>
<path d="M363.004 69.9V59.54L364.614 63.705L353.659 45.4H360.974L368.884 58.665H364.649L372.594 45.4H379.314L368.394 63.705L369.934 59.54V69.9H363.004Z" fill="black"/>
<path d="M327.543 69.9L338.358 45.4H345.183L356.033 69.9H348.823L340.353 48.795H343.083L334.613 69.9H327.543ZM333.458 65.14L335.243 60.03H347.213L348.998 65.14H333.458Z" fill="black"/>
<path d="M308.531 69.9V45.4H315.461V64.405H327.151V69.9H308.531Z" fill="black"/>
<path d="M294.556 70.39C292.62 70.39 290.823 70.0866 289.166 69.48C287.533 68.85 286.11 67.9633 284.896 66.82C283.706 65.6766 282.773 64.335 282.096 62.795C281.42 61.2316 281.081 59.5166 281.081 57.65C281.081 55.7833 281.42 54.08 282.096 52.54C282.773 50.9766 283.706 49.6233 284.896 48.48C286.11 47.3366 287.533 46.4616 289.166 45.855C290.823 45.225 292.62 44.91 294.556 44.91C296.82 44.91 298.838 45.3066 300.611 46.1C302.408 46.8933 303.901 48.0366 305.091 49.53L300.681 53.52C299.888 52.5866 299.013 51.875 298.056 51.385C297.123 50.895 296.073 50.65 294.906 50.65C293.903 50.65 292.981 50.8133 292.141 51.14C291.301 51.4666 290.578 51.945 289.971 52.575C289.388 53.1816 288.921 53.9166 288.571 54.78C288.245 55.6433 288.081 56.6 288.081 57.65C288.081 58.7 288.245 59.6566 288.571 60.52C288.921 61.3833 289.388 62.13 289.971 62.76C290.578 63.3666 291.301 63.8333 292.141 64.16C292.981 64.4866 293.903 64.65 294.906 64.65C296.073 64.65 297.123 64.405 298.056 63.915C299.013 63.425 299.888 62.7133 300.681 61.78L305.091 65.77C303.901 67.24 302.408 68.3833 300.611 69.2C298.838 69.9933 296.82 70.39 294.556 70.39Z" fill="black"/>
<path d="M251.878 69.9L262.693 45.4H269.518L280.368 69.9H273.158L264.688 48.795H267.418L258.948 69.9H251.878ZM257.793 65.14L259.578 60.03H271.548L273.333 65.14H257.793Z" fill="black"/>
<path d="M240.417 70.39C238.411 70.39 236.474 70.145 234.607 69.655C232.764 69.1416 231.259 68.4883 230.092 67.695L232.367 62.585C233.464 63.285 234.724 63.8683 236.147 64.335C237.594 64.7783 239.029 65 240.452 65C241.409 65 242.179 64.9183 242.762 64.755C243.346 64.5683 243.766 64.335 244.022 64.055C244.302 63.7516 244.442 63.4016 244.442 63.005C244.442 62.445 244.186 62.0016 243.672 61.675C243.159 61.3483 242.494 61.08 241.677 60.87C240.861 60.66 239.951 60.45 238.947 60.24C237.967 60.03 236.976 59.7616 235.972 59.435C234.992 59.1083 234.094 58.6883 233.277 58.175C232.461 57.6383 231.796 56.95 231.282 56.11C230.769 55.2466 230.512 54.1616 230.512 52.855C230.512 51.385 230.909 50.055 231.702 48.865C232.519 47.675 233.732 46.7183 235.342 45.995C236.952 45.2716 238.959 44.91 241.362 44.91C242.972 44.91 244.547 45.0966 246.087 45.47C247.651 45.82 249.039 46.345 250.252 47.045L248.117 52.19C246.951 51.56 245.796 51.0933 244.652 50.79C243.509 50.4633 242.401 50.3 241.327 50.3C240.371 50.3 239.601 50.405 239.017 50.615C238.434 50.8016 238.014 51.0583 237.757 51.385C237.501 51.7116 237.372 52.085 237.372 52.505C237.372 53.0416 237.617 53.4733 238.107 53.8C238.621 54.1033 239.286 54.36 240.102 54.57C240.942 54.7566 241.852 54.955 242.832 55.165C243.836 55.375 244.827 55.6433 245.807 55.97C246.811 56.2733 247.721 56.6933 248.537 57.23C249.354 57.7433 250.007 58.4316 250.497 59.295C251.011 60.135 251.267 61.1966 251.267 62.48C251.267 63.9033 250.859 65.2216 250.042 66.435C249.249 67.625 248.047 68.5816 246.437 69.305C244.851 70.0283 242.844 70.39 240.417 70.39Z" fill="black"/>
<path d="M217.528 62.48V57.37H227.748V62.48H217.528Z" fill="black"/>
<path d="M203.487 70.39C201.48 70.39 199.543 70.145 197.677 69.655C195.833 69.1416 194.328 68.4883 193.162 67.695L195.437 62.585C196.533 63.285 197.793 63.8683 199.217 64.335C200.663 64.7783 202.098 65 203.522 65C204.478 65 205.248 64.9183 205.832 64.755C206.415 64.5683 206.835 64.335 207.092 64.055C207.372 63.7516 207.512 63.4016 207.512 63.005C207.512 62.445 207.255 62.0016 206.742 61.675C206.228 61.3483 205.563 61.08 204.747 60.87C203.93 60.66 203.02 60.45 202.017 60.24C201.037 60.03 200.045 59.7616 199.042 59.435C198.062 59.1083 197.163 58.6883 196.347 58.175C195.53 57.6383 194.865 56.95 194.352 56.11C193.838 55.2466 193.582 54.1616 193.582 52.855C193.582 51.385 193.978 50.055 194.772 48.865C195.588 47.675 196.802 46.7183 198.412 45.995C200.022 45.2716 202.028 44.91 204.432 44.91C206.042 44.91 207.617 45.0966 209.157 45.47C210.72 45.82 212.108 46.345 213.322 47.045L211.187 52.19C210.02 51.56 208.865 51.0933 207.722 50.79C206.578 50.4633 205.47 50.3 204.397 50.3C203.44 50.3 202.67 50.405 202.087 50.615C201.503 50.8016 201.083 51.0583 200.827 51.385C200.57 51.7116 200.442 52.085 200.442 52.505C200.442 53.0416 200.687 53.4733 201.177 53.8C201.69 54.1033 202.355 54.36 203.172 54.57C204.012 54.7566 204.922 54.955 205.902 55.165C206.905 55.375 207.897 55.6433 208.877 55.97C209.88 56.2733 210.79 56.6933 211.607 57.23C212.423 57.7433 213.077 58.4316 213.567 59.295C214.08 60.135 214.337 61.1966 214.337 62.48C214.337 63.9033 213.928 65.2216 213.112 66.435C212.318 67.625 211.117 68.5816 209.507 69.305C207.92 70.0283 205.913 70.39 203.487 70.39Z" fill="black"/>
<path d="M182.666 69.9V45.4H189.596V69.9H182.666Z" fill="black"/>
<path d="M156.408 69.9V45.4H167.608C169.848 45.4 171.773 45.7616 173.383 46.485C175.017 47.2083 176.277 48.2583 177.163 49.635C178.05 50.9883 178.493 52.5983 178.493 54.465C178.493 56.3083 178.05 57.9066 177.163 59.26C176.277 60.59 175.017 61.6166 173.383 62.34C171.773 63.04 169.848 63.39 167.608 63.39H160.258L163.338 60.485V69.9H156.408ZM171.563 69.9L165.473 60.975H172.858L178.983 69.9H171.563ZM163.338 61.22L160.258 58.035H167.188C168.635 58.035 169.708 57.72 170.408 57.09C171.132 56.46 171.493 55.585 171.493 54.465C171.493 53.3216 171.132 52.435 170.408 51.805C169.708 51.175 168.635 50.86 167.188 50.86H160.258L163.338 47.675V61.22Z" fill="black"/>
<path d="M125.604 69.9L136.419 45.4H143.244L154.094 69.9H146.884L138.414 48.795H141.144L132.674 69.9H125.604ZM131.519 65.14L133.304 60.03H145.274L147.059 65.14H131.519Z" fill="black"/>
<path d="M103.96 69.9V45.4H115.16C117.4 45.4 119.325 45.7616 120.935 46.485C122.569 47.2083 123.829 48.2583 124.715 49.635C125.602 50.9883 126.045 52.5983 126.045 54.465C126.045 56.3083 125.602 57.9066 124.715 59.26C123.829 60.6133 122.569 61.6633 120.935 62.41C119.325 63.1333 117.4 63.495 115.16 63.495H107.81L110.89 60.485V69.9H103.96ZM110.89 61.22L107.81 58.035H114.74C116.187 58.035 117.26 57.72 117.96 57.09C118.684 56.46 119.045 55.585 119.045 54.465C119.045 53.3216 118.684 52.435 117.96 51.805C117.26 51.175 116.187 50.86 114.74 50.86H107.81L110.89 47.675V61.22Z" fill="black"/>
<path d="M220.135 35.6C217.535 35.6 215.035 35.1833 212.635 34.35C210.268 33.4833 208.435 32.3833 207.135 31.05L208.585 28.2C209.818 29.4 211.468 30.4167 213.535 31.25C215.635 32.05 217.835 32.45 220.135 32.45C222.335 32.45 224.118 32.1833 225.485 31.65C226.885 31.0833 227.902 30.3333 228.535 29.4C229.202 28.4667 229.535 27.4333 229.535 26.3C229.535 24.9333 229.135 23.8333 228.335 23C227.568 22.1667 226.552 21.5167 225.285 21.05C224.018 20.55 222.618 20.1167 221.085 19.75C219.552 19.3833 218.018 19 216.485 18.6C214.952 18.1667 213.535 17.6 212.235 16.9C210.968 16.2 209.935 15.2833 209.135 14.15C208.368 12.9833 207.985 11.4667 207.985 9.6C207.985 7.86667 208.435 6.28333 209.335 4.85C210.268 3.38333 211.685 2.21667 213.585 1.35C215.485 0.45 217.918 0 220.885 0C222.852 0 224.802 0.283333 226.735 0.85C228.668 1.38333 230.335 2.13333 231.735 3.1L230.485 6.05C228.985 5.05 227.385 4.31667 225.685 3.85C224.018 3.38333 222.402 3.15 220.835 3.15C218.735 3.15 217.002 3.43333 215.635 4C214.268 4.56667 213.252 5.33333 212.585 6.3C211.952 7.23333 211.635 8.3 211.635 9.5C211.635 10.8667 212.018 11.9667 212.785 12.8C213.585 13.6333 214.618 14.2833 215.885 14.75C217.185 15.2167 218.602 15.6333 220.135 16C221.668 16.3667 223.185 16.7667 224.685 17.2C226.218 17.6333 227.618 18.2 228.885 18.9C230.185 19.5667 231.218 20.4667 231.985 21.6C232.785 22.7333 233.185 24.2167 233.185 26.05C233.185 27.75 232.718 29.3333 231.785 30.8C230.852 32.2333 229.418 33.4 227.485 34.3C225.585 35.1667 223.135 35.6 220.135 35.6Z" fill="black"/>
<path d="M180.338 15.95H198.838V19.1H180.338V15.95ZM180.738 32.1H201.788V35.3H177.038V0.299999H201.038V3.5H180.738V32.1Z" fill="black"/>
<path d="M141.637 35.3V0.299999H154.737C157.704 0.299999 160.254 0.783333 162.387 1.75C164.521 2.68333 166.154 4.05 167.287 5.85C168.454 7.61667 169.037 9.76667 169.037 12.3C169.037 14.7667 168.454 16.9 167.287 18.7C166.154 20.4667 164.521 21.8333 162.387 22.8C160.254 23.7667 157.704 24.25 154.737 24.25H143.687L145.337 22.5V35.3H141.637ZM145.337 22.8L143.687 21H154.637C158.137 21 160.787 20.25 162.587 18.75C164.421 17.2167 165.337 15.0667 165.337 12.3C165.337 9.5 164.421 7.33333 162.587 5.8C160.787 4.26667 158.137 3.5 154.637 3.5H143.687L145.337 1.75V22.8Z" fill="black"/>
<path d="M120.9 35.6C118.267 35.6 115.833 35.1667 113.6 34.3C111.367 33.4 109.433 32.15 107.8 30.55C106.167 28.95 104.883 27.0667 103.95 24.9C103.05 22.7333 102.6 20.3667 102.6 17.8C102.6 15.2333 103.05 12.8667 103.95 10.7C104.883 8.53333 106.167 6.65 107.8 5.05C109.467 3.45 111.417 2.21667 113.65 1.35C115.883 0.45 118.317 0 120.95 0C123.483 0 125.867 0.433334 128.1 1.3C130.333 2.13333 132.217 3.4 133.75 5.1L131.4 7.45C129.967 5.98333 128.383 4.93333 126.65 4.3C124.917 3.63333 123.05 3.3 121.05 3.3C118.95 3.3 117 3.66667 115.2 4.4C113.4 5.1 111.833 6.11667 110.5 7.45C109.167 8.75 108.117 10.2833 107.35 12.05C106.617 13.7833 106.25 15.7 106.25 17.8C106.25 19.9 106.617 21.8333 107.35 23.6C108.117 25.3333 109.167 26.8667 110.5 28.2C111.833 29.5 113.4 30.5167 115.2 31.25C117 31.95 118.95 32.3 121.05 32.3C123.05 32.3 124.917 31.9667 126.65 31.3C128.383 30.6333 129.967 29.5667 131.4 28.1L133.75 30.45C132.217 32.15 130.333 33.4333 128.1 34.3C125.867 35.1667 123.467 35.6 120.9 35.6Z" fill="black"/>
<path d="M129.464 91.56C128.589 91.56 127.752 91.4373 126.952 91.192C126.152 90.936 125.517 90.6107 125.048 90.216L125.768 88.6C126.216 88.952 126.771 89.2453 127.432 89.48C128.093 89.7147 128.771 89.832 129.464 89.832C130.051 89.832 130.525 89.768 130.888 89.64C131.251 89.512 131.517 89.3413 131.688 89.128C131.859 88.904 131.944 88.6533 131.944 88.376C131.944 88.0347 131.821 87.7626 131.576 87.56C131.331 87.3466 131.011 87.1813 130.616 87.064C130.232 86.936 129.8 86.8187 129.32 86.712C128.851 86.6053 128.376 86.4827 127.896 86.344C127.427 86.1947 126.995 86.008 126.6 85.784C126.216 85.5493 125.901 85.24 125.656 84.856C125.411 84.472 125.288 83.9813 125.288 83.384C125.288 82.776 125.448 82.2213 125.768 81.72C126.099 81.208 126.595 80.8026 127.256 80.504C127.928 80.1946 128.776 80.04 129.8 80.04C130.472 80.04 131.139 80.1253 131.8 80.296C132.461 80.4667 133.037 80.712 133.528 81.032L132.872 82.648C132.371 82.3493 131.853 82.1307 131.32 81.992C130.787 81.8427 130.275 81.768 129.784 81.768C129.208 81.768 128.739 81.8373 128.376 81.976C128.024 82.1146 127.763 82.296 127.592 82.52C127.432 82.744 127.352 83 127.352 83.288C127.352 83.6293 127.469 83.9067 127.704 84.12C127.949 84.3227 128.264 84.4826 128.648 84.6C129.043 84.7173 129.48 84.8347 129.96 84.952C130.44 85.0587 130.915 85.1813 131.384 85.32C131.864 85.4587 132.296 85.64 132.68 85.864C133.075 86.088 133.389 86.392 133.624 86.776C133.869 87.16 133.992 87.6453 133.992 88.232C133.992 88.8293 133.827 89.384 133.496 89.896C133.176 90.3973 132.68 90.8027 132.008 91.112C131.336 91.4107 130.488 91.56 129.464 91.56Z" fill="black"/>
<path d="M112.879 91.4V80.2H114.591L121.615 88.824H120.767V80.2H122.831V91.4H121.119L114.095 82.776H114.943V91.4H112.879Z" fill="black"/>
<path d="M103.92 84.856H109.488V86.568H103.92V84.856ZM104.08 89.656H110.4V91.4H102V80.2H110.176V81.944H104.08V89.656Z" fill="black"/>
<path d="M136.132 91.3L138.412 88.34L138.402 88.83L136.232 86H137.302L138.962 88.18H138.552L140.212 86H141.262L139.062 88.85L139.072 88.34L141.372 91.3H140.282L138.532 88.98L138.922 89.04L137.202 91.3H136.132Z" fill="black"/>
<path d="M173.168 91.56C172.314 91.56 171.52 91.4213 170.784 91.144C170.058 90.856 169.424 90.456 168.88 89.944C168.346 89.4213 167.93 88.808 167.632 88.104C167.333 87.4 167.184 86.632 167.184 85.8C167.184 84.968 167.333 84.2 167.632 83.496C167.93 82.792 168.352 82.184 168.896 81.672C169.44 81.1493 170.074 80.7493 170.8 80.472C171.525 80.184 172.32 80.04 173.184 80.04C174.101 80.04 174.938 80.2 175.696 80.52C176.453 80.8293 177.093 81.2933 177.616 81.912L176.272 83.176C175.866 82.7387 175.413 82.4133 174.912 82.2C174.41 81.976 173.866 81.864 173.28 81.864C172.693 81.864 172.154 81.96 171.664 82.152C171.184 82.344 170.762 82.616 170.4 82.968C170.048 83.32 169.77 83.736 169.568 84.216C169.376 84.696 169.28 85.224 169.28 85.8C169.28 86.376 169.376 86.904 169.568 87.384C169.77 87.864 170.048 88.28 170.4 88.632C170.762 88.984 171.184 89.256 171.664 89.448C172.154 89.64 172.693 89.736 173.28 89.736C173.866 89.736 174.41 89.6293 174.912 89.416C175.413 89.192 175.866 88.856 176.272 88.408L177.616 89.688C177.093 90.296 176.453 90.76 175.696 91.08C174.938 91.4 174.096 91.56 173.168 91.56Z" fill="black"/>
<path d="M159.025 84.856H164.593V86.568H159.025V84.856ZM159.185 89.656H165.505V91.4H157.105V80.2H165.281V81.944H159.185V89.656Z" fill="black"/>
<path d="M151.864 80.2H153.944V91.4H151.864V80.2ZM146.072 91.4H143.992V80.2H146.072V91.4ZM152.024 86.6H145.896V84.824H152.024V86.6Z" fill="black"/>
<path d="M179.756 91.3L182.036 88.34L182.026 88.83L179.856 86H180.926L182.586 88.18H182.176L183.836 86H184.886L182.686 88.85L182.696 88.34L184.996 91.3H183.906L182.156 88.98L182.546 89.04L180.826 91.3H179.756Z" fill="black"/>
<path d="M204.498 91.4V80.2H209.106C210.098 80.2 210.946 80.36 211.65 80.68C212.365 81 212.914 81.4587 213.298 82.056C213.682 82.6533 213.874 83.3627 213.874 84.184C213.874 85.0053 213.682 85.7147 213.298 86.312C212.914 86.9093 212.365 87.368 211.65 87.688C210.946 88.008 210.098 88.168 209.106 88.168H205.65L206.578 87.192V91.4H204.498ZM206.578 87.416L205.65 86.408H209.01C209.928 86.408 210.616 86.216 211.074 85.832C211.544 85.4373 211.778 84.888 211.778 84.184C211.778 83.4693 211.544 82.92 211.074 82.536C210.616 82.152 209.928 81.96 209.01 81.96H205.65L206.578 80.936V87.416Z" fill="black"/>
<path d="M192.885 91.4V80.2H197.493C198.485 80.2 199.333 80.36 200.037 80.68C200.752 81 201.301 81.4587 201.685 82.056C202.069 82.6533 202.261 83.3627 202.261 84.184C202.261 85.0053 202.069 85.7147 201.685 86.312C201.301 86.9093 200.752 87.368 200.037 87.688C199.333 88.008 198.485 88.168 197.493 88.168H194.037L194.965 87.192V91.4H192.885ZM194.965 87.416L194.037 86.408H197.397C198.315 86.408 199.003 86.216 199.461 85.832C199.931 85.4373 200.165 84.888 200.165 84.184C200.165 83.4693 199.931 82.92 199.461 82.536C199.003 82.152 198.315 81.96 197.397 81.96H194.037L194.965 80.936V87.416Z" fill="black"/>
<path d="M187.616 91.4V80.2H189.696V91.4H187.616Z" fill="black"/>
<path d="M216.014 91.3L218.294 88.34L218.284 88.83L216.114 86H217.184L218.844 88.18H218.434L220.094 86H221.144L218.944 88.85L218.954 88.34L221.254 91.3H220.164L218.414 88.98L218.804 89.04L217.084 91.3H216.014Z" fill="black"/>
<path d="M265.736 91.56C264.862 91.56 264.024 91.4373 263.224 91.192C262.424 90.936 261.79 90.6107 261.32 90.216L262.04 88.6C262.488 88.952 263.043 89.2453 263.704 89.48C264.366 89.7147 265.043 89.832 265.736 89.832C266.323 89.832 266.798 89.768 267.16 89.64C267.523 89.512 267.79 89.3413 267.96 89.128C268.131 88.904 268.216 88.6533 268.216 88.376C268.216 88.0347 268.094 87.7626 267.848 87.56C267.603 87.3466 267.283 87.1813 266.888 87.064C266.504 86.936 266.072 86.8187 265.592 86.712C265.123 86.6053 264.648 86.4827 264.168 86.344C263.699 86.1947 263.267 86.008 262.872 85.784C262.488 85.5493 262.174 85.24 261.928 84.856C261.683 84.472 261.56 83.9813 261.56 83.384C261.56 82.776 261.72 82.2213 262.04 81.72C262.371 81.208 262.867 80.8026 263.528 80.504C264.2 80.1946 265.048 80.04 266.072 80.04C266.744 80.04 267.411 80.1253 268.072 80.296C268.734 80.4667 269.31 80.712 269.8 81.032L269.144 82.648C268.643 82.3493 268.126 82.1307 267.592 81.992C267.059 81.8427 266.547 81.768 266.056 81.768C265.48 81.768 265.011 81.8373 264.648 81.976C264.296 82.1146 264.035 82.296 263.864 82.52C263.704 82.744 263.624 83 263.624 83.288C263.624 83.6293 263.742 83.9067 263.976 84.12C264.222 84.3227 264.536 84.4826 264.92 84.6C265.315 84.7173 265.752 84.8347 266.232 84.952C266.712 85.0587 267.187 85.1813 267.656 85.32C268.136 85.4587 268.568 85.64 268.952 85.864C269.347 86.088 269.662 86.392 269.896 86.776C270.142 87.16 270.264 87.6453 270.264 88.232C270.264 88.8293 270.099 89.384 269.768 89.896C269.448 90.3973 268.952 90.8027 268.28 91.112C267.608 91.4107 266.76 91.56 265.736 91.56Z" fill="black"/>
<path d="M250.495 91.4V80.2H255.103C256.095 80.2 256.943 80.36 257.647 80.68C258.362 81 258.911 81.4587 259.295 82.056C259.679 82.6533 259.871 83.3626 259.871 84.184C259.871 85.0053 259.679 85.7147 259.295 86.312C258.911 86.9093 258.362 87.368 257.647 87.688C256.943 88.008 256.095 88.168 255.103 88.168H251.647L252.575 87.192V91.4H250.495ZM252.575 87.416L251.647 86.408H255.007C255.924 86.408 256.612 86.216 257.071 85.832C257.54 85.4373 257.775 84.888 257.775 84.184C257.775 83.4693 257.54 82.92 257.071 82.536C256.612 82.152 255.924 81.96 255.007 81.96H251.647L252.575 80.936V87.416Z" fill="black"/>
<path d="M238.882 91.4V80.2H243.49C244.482 80.2 245.33 80.36 246.034 80.68C246.749 81 247.298 81.4587 247.682 82.056C248.066 82.6533 248.258 83.3626 248.258 84.184C248.258 85.0053 248.066 85.7147 247.682 86.312C247.298 86.9093 246.749 87.368 246.034 87.688C245.33 88.008 244.482 88.168 243.49 88.168H240.034L240.962 87.192V91.4H238.882ZM240.962 87.416L240.034 86.408H243.394C244.311 86.408 244.999 86.216 245.458 85.832C245.927 85.4373 246.162 84.888 246.162 84.184C246.162 83.4693 245.927 82.92 245.458 82.536C244.999 82.152 244.311 81.96 243.394 81.96H240.034L240.962 80.936V87.416Z" fill="black"/>
<path d="M233.613 91.4V80.2H235.693V91.4H233.613Z" fill="black"/>
<path d="M223.874 91.4V80.2H225.954V89.64H231.81V91.4H223.874Z" fill="black"/>
<path d="M272.404 91.3L274.684 88.34L274.674 88.83L272.504 86H273.574L275.234 88.18H274.824L276.484 86H277.534L275.334 88.85L275.344 88.34L277.644 91.3H276.554L274.804 88.98L275.194 89.04L273.474 91.3H272.404Z" fill="black"/>
<path d="M308.387 91.56C307.512 91.56 306.675 91.4373 305.875 91.192C305.075 90.936 304.44 90.6107 303.971 90.216L304.691 88.6C305.139 88.952 305.693 89.2453 306.355 89.48C307.016 89.7147 307.693 89.832 308.387 89.832C308.973 89.832 309.448 89.768 309.811 89.64C310.173 89.512 310.44 89.3413 310.611 89.128C310.781 88.904 310.867 88.6533 310.867 88.376C310.867 88.0347 310.744 87.7626 310.499 87.56C310.253 87.3466 309.933 87.1813 309.539 87.064C309.155 86.936 308.723 86.8187 308.243 86.712C307.773 86.6053 307.299 86.4827 306.819 86.344C306.349 86.1947 305.917 86.008 305.523 85.784C305.139 85.5493 304.824 85.24 304.579 84.856C304.333 84.472 304.211 83.9813 304.211 83.384C304.211 82.776 304.371 82.2213 304.691 81.72C305.021 81.208 305.517 80.8026 306.179 80.504C306.851 80.1946 307.699 80.04 308.723 80.04C309.395 80.04 310.061 80.1253 310.723 80.296C311.384 80.4667 311.96 80.712 312.451 81.032L311.795 82.648C311.293 82.3493 310.776 82.1307 310.243 81.992C309.709 81.8427 309.197 81.768 308.707 81.768C308.131 81.768 307.661 81.8373 307.299 81.976C306.947 82.1146 306.685 82.296 306.515 82.52C306.355 82.744 306.275 83 306.275 83.288C306.275 83.6293 306.392 83.9067 306.627 84.12C306.872 84.3227 307.187 84.4826 307.571 84.6C307.965 84.7173 308.403 84.8347 308.883 84.952C309.363 85.0587 309.837 85.1813 310.307 85.32C310.787 85.4587 311.219 85.64 311.603 85.864C311.997 86.088 312.312 86.392 312.547 86.776C312.792 87.16 312.915 87.6453 312.915 88.232C312.915 88.8293 312.749 89.384 312.419 89.896C312.099 90.3973 311.603 90.8027 310.931 91.112C310.259 91.4107 309.411 91.56 308.387 91.56Z" fill="black"/>
<path d="M293.145 91.4V80.2H297.753C298.745 80.2 299.593 80.36 300.297 80.68C301.012 81 301.561 81.4587 301.945 82.056C302.329 82.6533 302.521 83.3626 302.521 84.184C302.521 85.0053 302.329 85.7147 301.945 86.312C301.561 86.9093 301.012 87.368 300.297 87.688C299.593 88.008 298.745 88.168 297.753 88.168H294.297L295.225 87.192V91.4H293.145ZM295.225 87.416L294.297 86.408H297.657C298.575 86.408 299.263 86.216 299.721 85.832C300.191 85.4373 300.425 84.888 300.425 84.184C300.425 83.4693 300.191 82.92 299.721 82.536C299.263 82.152 298.575 81.96 297.657 81.96H294.297L295.225 80.936V87.416Z" fill="black"/>
<path d="M285.176 91.56C283.64 91.56 282.435 91.128 281.56 90.264C280.696 89.4 280.264 88.152 280.264 86.52V80.2H282.344V86.44C282.344 87.592 282.59 88.4293 283.08 88.952C283.582 89.4747 284.286 89.736 285.192 89.736C286.099 89.736 286.798 89.4747 287.288 88.952C287.779 88.4293 288.024 87.592 288.024 86.44V80.2H290.072V86.52C290.072 88.152 289.635 89.4 288.76 90.264C287.896 91.128 286.702 91.56 285.176 91.56Z" fill="black"/>
</svg>
