<svg width="88" height="94" viewBox="0 0 88 94" fill="none" xmlns="http://www.w3.org/2000/svg">
<style>
  @media (prefers-color-scheme: light) {
    .adaptive-fill { fill: black; }
  }
  @media (prefers-color-scheme: dark) {
    .adaptive-fill { fill: white; }
  }
</style>
<path class="adaptive-fill" d="M46.8152 87.0883C46.8152 91.2353 45.4384 94 43.6025 94C41.7665 94 40.3897 91.2353 40.3897 87.0883C40.3897 82.9412 42.6845 76.0294 43.6025 76.0294C44.5204 76.0294 46.8152 82.9412 46.8152 87.0883Z"/>
<path class="adaptive-fill" fill-rule="evenodd" clip-rule="evenodd" d="M40.3897 15.2059C40.3897 15.2059 40.8486 0 43.6024 0C46.3563 0 46.8152 15.2059 46.8152 15.2059C46.8152 15.2059 54.6177 16.5883 58.7485 25.3432C62.8793 34.098 57.3716 41.9314 57.3716 41.9314C57.3716 41.9314 65.1742 46.5392 65.1742 36.402C65.1742 26.2647 72.5177 24.4215 72.5177 24.4215C72.5177 24.4215 70.6818 29.4902 72.0587 34.098C73.4356 38.7059 71.5998 43.7746 71.5998 43.7746C71.5998 43.7746 87.2048 44.2353 87.2048 47C87.2048 49.7647 61.5024 53.451 61.5024 53.451C61.5024 53.451 64.7592 56.6765 66.5511 60.3627C68.3429 64.049 68.4601 69.864 67.469 69.1177C66.7382 68.5674 66.3544 68.1389 65.8453 67.5705C65.0755 66.7109 64.0193 65.5315 61.0434 63.1275C56.0994 59.1335 53.2408 58.5197 53.2408 58.5197C53.2408 58.5197 52.846 59.902 54.1588 65.8922C54.7729 68.6942 55.415 70.0847 55.9716 71.29C56.6049 72.6612 57.1273 73.7925 57.3716 76.4902C57.8306 81.5588 55.0768 86.6275 54.6177 86.6275C54.4907 86.6275 54.5395 86.292 54.6278 85.6848C54.8586 84.0981 55.3594 80.6557 53.6998 76.4902C53.1329 75.0673 52.0408 73.7294 50.7298 72.1235C49.804 70.9894 48.7692 69.7217 47.7332 68.1961C46.132 65.8383 45.077 62.161 44.4044 59.8166C44.0254 58.4958 43.7678 57.598 43.6024 57.598C43.437 57.598 43.1794 58.4958 42.8005 59.8166C42.1279 62.161 41.0728 65.8383 39.4716 68.1961C38.4356 69.7217 37.4008 70.9894 36.4751 72.1235C35.164 73.7294 34.0719 75.0673 33.505 76.4902C31.8454 80.6557 32.3462 84.0981 32.577 85.6848C32.6653 86.292 32.7142 86.6275 32.5871 86.6275C32.1281 86.6275 29.3742 81.5588 29.8332 76.4902C30.0775 73.7925 30.6 72.6612 31.2333 71.29C31.7898 70.0847 32.4319 68.6942 33.046 65.8922C34.3588 59.902 33.964 58.5197 33.964 58.5197C33.964 58.5197 31.1054 59.1335 26.1615 63.1275C23.1855 65.5315 22.1293 66.7109 21.3595 67.5705C20.8504 68.1389 20.4666 68.5674 19.7358 69.1177C18.7447 69.864 18.862 64.049 20.6537 60.3627C22.4456 56.6765 25.7024 53.451 25.7024 53.451C25.7024 53.451 0 49.7647 0 47C0 44.2353 15.605 43.7746 15.605 43.7746C15.605 43.7746 13.7692 38.7059 15.1461 34.098C16.5231 29.4902 14.6871 24.4215 14.6871 24.4215C14.6871 24.4215 22.0307 26.2647 22.0307 36.402C22.0307 46.5392 29.8332 41.9314 29.8332 41.9314C29.8332 41.9314 24.3255 34.098 28.4563 25.3432C32.5871 16.5883 40.3897 15.2059 40.3897 15.2059ZM49.576 43.3137C47.4176 43.3137 45.7774 41.3298 45.9042 39.1666C46.0232 37.1343 47.548 35.4804 49.576 35.4804C51.6039 35.4804 53.1287 37.1343 53.2477 39.1666C53.3427 40.789 52.444 42.3105 51.078 42.9699C50.6227 43.1897 50.1155 43.3137 49.576 43.3137ZM33.9708 39.1666C33.8441 41.3298 35.4843 43.3137 37.6427 43.3137C38.1822 43.3137 38.6894 43.1897 39.1448 42.9699C40.5106 42.3105 41.4095 40.789 41.3145 39.1666C41.1953 37.1343 39.6705 35.4804 37.6427 35.4804C35.6148 35.4804 34.09 37.1343 33.9708 39.1666Z"/>
</svg>